<svg width="634" height="378" viewBox="0 0 634 378" fill="none" xmlns="http://www.w3.org/2000/svg">
<path class="amogus" d="M3 375V3H631V375H3Z" stroke="white" stroke-width="5"/>
<path class="amogus" d="M3 38H629" stroke="white" stroke-width="5"/>
<path class="amogus" d="M39 138H288" stroke="white" stroke-width="28"/>
<path class="amogus" d="M39 176H250" stroke="white" stroke-width="28"/>
<path class="amogus" d="M610.794 16.4018C609.858 16.0723 609.003 15.9624 608.004 16.011C605.84 16.1162 605.046 17.4502 605.001 19.6041C604.928 23.1193 609.564 23.38 612.089 22.7012C614.251 22.1203 614.53 19.8233 613.171 18.1834C611.62 16.3114 609.757 16.1312 607.481 16.1312" stroke="#FF0000"/>
<path class="amogus" d="M583.501 17C581.598 17 580.48 17.7728 580.082 19.7808C579.452 22.9576 582.585 24.2771 585.231 23.952C587.117 23.7202 588.607 22.1983 587.754 20.2325C587.319 19.2321 586.262 18.0228 585.306 17.5293C584.125 16.92 583.155 17.1161 582.024 17.6352" stroke="#24FF00"/>
<path class="amogus" d="M559.726 18.3742C557.793 17.7931 555.282 17.6365 554.335 19.8094C553.861 20.8962 553.823 22.6354 554.662 23.5735C555.86 24.9109 558.729 25.4946 560.292 24.501C561.9 23.4792 562.57 21.376 561.432 19.7891C560.936 19.0987 560.43 18.4851 559.507 18.5367C558.022 18.6197 557.081 19.6782 556.164 20.6895" stroke="#FFE600"/>
<path class="amogus" d="M457 88H587" stroke="white"/>
<path class="amogus" d="M587 86V290" stroke="white"/>
<path class="amogus" d="M466 290H575" stroke="white"/>
<path class="amogus" d="M466 91V291" stroke="white"/>
<path class="amogus" d="M471 97.7692C471.535 96.7882 473.741 96.2228 474.64 95.8342C474.894 95.7241 478.695 93.6769 478.193 95.0833C477.109 98.1176 474.7 100.735 472.762 103.242C471.66 104.668 471.295 105.322 473.282 104.441C474.218 104.026 475.488 103.356 476.373 102.91C477.202 102.492 479.351 100.969 480.417 101.163C480.894 101.249 476.864 107.644 476.575 108.08C476.389 108.361 472.84 112.787 474.654 112.34C477.094 111.738 479.53 110.24 481.717 109.091C484.747 107.498 487.728 105.812 490.672 104.065C491.568 103.534 492.387 102.829 493.373 102.491C494.603 102.07 491.815 104.583 490.903 105.509C485.794 110.699 480.304 115.51 474.625 120.065C473.872 120.67 468.428 124.772 472.878 122.26C481.639 117.316 489.959 111.59 498.4 106.13C506.551 100.858 514.718 95.332 523.373 90.8956C524.012 90.5678 525.642 89.5468 525.424 90.2313C524.856 92.011 520.089 95.2352 519.112 96.0508C510.836 102.956 502.477 109.728 494.341 116.802C488.732 121.679 482.915 126.335 477.817 131.762C477.679 131.91 474.47 134.987 474.871 135.502C475.243 135.981 481.089 132.275 481.284 132.166C495.874 124.01 510.089 115.347 525.164 108.08C530.152 105.675 535.167 103.2 540.315 101.148C541.213 100.79 542.303 100.375 543.262 100.094C544.107 99.8464 543.935 100.161 543.363 100.686C536.888 106.624 529.142 111.435 522.015 116.527C511.836 123.8 501.572 130.978 491.741 138.722C489.744 140.295 488.809 141.046 486.989 142.693C486.454 143.178 485.933 143.678 485.415 144.181C484.975 144.608 483.54 145.403 484.144 145.509C484.382 145.551 484.564 145.268 484.765 145.134C485.402 144.71 486.027 144.268 486.657 143.834C492.585 139.749 498.526 135.687 504.524 131.704C522.546 119.736 540.814 108.112 559.511 97.2205C562.187 95.6616 564.906 94.2587 567.686 92.9028C569.084 92.2211 565.262 94.8555 563.988 95.7476C546.065 108.301 528.788 121.546 511.847 135.401C501.91 143.527 492.873 152.2 484.115 161.553C483.328 162.393 480.739 164.195 481.891 164.195C484.224 164.195 488.036 160.829 489.661 159.805C503.364 151.172 516.918 142.286 530.739 133.841C536.232 130.485 541.877 127.39 547.465 124.195C551.369 121.963 555.26 119.718 559.366 117.87C559.483 117.818 560.409 117.402 560.695 117.322C561.16 117.19 560.882 117.535 560.695 117.711C555.421 122.706 548.881 126.711 543.045 130.982C533.967 137.627 524.858 144.242 516.209 151.444C507.455 158.733 499.056 166.509 490.918 174.477C487.03 178.284 483.236 182.209 479.666 186.318C479.452 186.565 477.367 188.959 479.146 187.834C484.317 184.565 489.284 180.933 494.312 177.452C504.872 170.14 515.496 162.915 526.204 155.82C537.629 148.249 549.309 140.893 560.291 132.686C561.052 132.117 562.567 131.324 563.093 130.448C563.171 130.317 562.818 130.583 562.688 130.665C561.292 131.55 559.915 132.481 558.586 133.466C553.501 137.235 548.83 141.581 544.042 145.712C536.171 152.502 528.409 159.419 520.831 166.535C514.026 172.924 507.281 179.399 500.739 186.058C500.11 186.699 498.094 188.109 498.992 188.109C499.804 188.109 502.129 186.352 502.487 186.13C517.262 176.999 531.596 167.181 546.54 158.318C549.741 156.42 552.969 154.552 556.246 152.787C556.484 152.659 557.208 152.315 556.998 152.484C555.408 153.756 553.638 154.908 551.971 156.051C533.521 168.705 515.052 181.309 496.825 194.289C490.272 198.956 483.997 203.97 477.557 208.787C476.704 209.426 472.297 212.362 476.286 210.289C482.982 206.81 489.389 202.743 495.901 198.939C504.561 193.88 513.247 188.867 521.914 183.82C531.783 178.072 541.655 172.308 551.625 166.737C554.939 164.885 558.3 163.011 561.851 161.639C562.074 161.553 562.325 161.285 562.529 161.408C562.569 161.432 562.517 161.505 562.486 161.538C561.819 162.256 559.63 164.22 559.366 164.455C552.851 170.27 546.027 175.721 539.477 181.495C521.008 197.778 503.927 215.36 486.599 232.816C486.495 232.921 482.762 236.508 483.97 235.935C489.505 233.314 494.64 229.296 499.685 225.885C517.814 213.626 536.241 201.868 555.495 191.43C559.737 189.13 564.059 186.986 568.451 184.99C568.684 184.884 569.346 184.541 569.174 184.73C568.135 185.863 565.519 187.231 564.45 187.935C540.88 203.457 517.143 218.859 495.179 236.629C490.321 240.559 485.6 244.727 480.504 248.354C476.014 251.55 489.064 241.409 493.417 238.029C508.339 226.442 523.671 215.393 538.539 203.733C548.61 195.836 559.008 187.861 568.018 178.722C569.127 177.598 571.576 174.387 569.997 174.419C568.708 174.445 565.84 175.591 565.115 175.892C559.087 178.396 553.297 181.497 547.754 184.932C537.573 191.241 528.252 198.884 518.809 206.217C510.654 212.549 502.527 218.974 494.197 225.076C493.877 225.31 492.869 225.896 493.128 225.596C495.5 222.838 498.689 220.37 501.418 218.044C511.378 209.555 521.811 201.587 532.472 194C541.999 187.22 551.739 180.728 561.432 174.188C564.895 171.852 569.515 169.602 572.337 166.405C572.452 166.274 571.99 166.463 571.831 166.535C569.435 167.609 567.101 168.829 564.797 170.087C556.435 174.655 548.266 179.589 540.041 184.397C530.623 189.904 521.192 195.37 511.673 200.701C501.624 206.329 491.754 212.324 481.573 217.712C480.388 218.338 478.443 219.328 477.182 219.964C476.359 220.379 474.355 222.033 474.698 221.177C474.964 220.512 475.878 220.363 476.474 219.964C480.053 217.57 483.62 215.154 487.264 212.86C509.393 198.925 532.844 187.095 555.467 173.986C563.093 169.567 570.546 164.885 577.869 159.979C580.288 158.358 581.861 157.28 584.137 155.661C584.937 155.092 586.289 154.315 586.983 153.509C587.096 153.378 586.625 153.42 586.463 153.48C583.87 154.45 581.42 156.085 579.154 157.61C567.598 165.391 557.128 174.567 546.613 183.661C532.196 196.129 517.607 208.622 504.74 222.737C504.558 222.937 503.761 223.79 503.542 224.195C503.167 224.886 505.005 223.597 505.665 223.17C515.722 216.674 525.043 209.058 534.899 202.26C542.916 196.731 567.399 180.857 559.713 186.838C549.318 194.928 538.307 202.231 527.865 210.275C512.239 222.311 497.072 235.038 482.454 248.282C482.025 248.671 481.548 249.02 481.197 249.481C481.095 249.615 481.526 249.39 481.674 249.307C485.145 247.374 488.41 244.746 491.626 242.463C502.379 234.827 513.153 227.283 524.398 220.383C533.158 215.009 541.956 209.533 551.162 204.946C553.476 203.793 556.014 202.655 558.413 201.654C559.398 201.243 562.215 199.86 561.432 200.585C560.459 201.486 559.303 202.167 558.225 202.939C553.106 206.608 547.943 210.215 542.814 213.87C532.697 221.08 522.816 228.574 513.132 236.354C505.295 242.651 497.471 248.991 489.921 255.632C489.187 256.278 488.462 256.936 487.74 257.596C487.26 258.035 485.74 259.098 486.382 258.997C487.918 258.754 491.354 255.86 492.319 255.199C501.028 249.227 509.474 242.88 518.13 236.831C528.21 229.787 538.634 223.276 548.967 216.614C553.018 214.002 556.999 211.103 561.287 208.874C562.41 208.29 561.525 208.895 561.157 209.134C557.816 211.304 554.428 213.399 551.09 215.574C534.316 226.508 517.54 237.519 502.256 250.491C500.119 252.305 496.715 254.495 495.265 257.018C494.907 257.642 496.693 256.745 497.345 256.441C500.944 254.762 504.401 252.766 507.802 250.722C518.211 244.47 528.291 237.661 538.437 230.997C544.552 226.981 550.607 222.813 557.113 219.444C557.425 219.283 559.851 218.09 560.377 217.827C560.777 217.627 561.864 216.948 561.62 217.322C561.192 217.975 559.951 219.17 559.641 219.473C556.175 222.864 552.488 226.036 548.822 229.206C540.523 236.384 531.92 243.182 523.835 250.607C517.056 256.833 510.128 262.891 503.354 269.12C501.053 271.235 498.789 273.332 496.392 275.329C493.259 277.939 503.469 271.263 506.864 269.004C520.171 260.15 533.246 251.053 547.046 242.968C547.167 242.897 553.726 239.04 550.469 241.163C541.208 247.199 531.797 253.012 522.246 258.578C511.941 264.584 501.751 270.786 491.438 276.773C490.02 277.596 488.481 278.846 486.917 279.401C486.509 279.546 488.909 275.804 488.939 275.762C494.024 268.6 500.38 262.341 505.087 254.91C505.511 254.241 506.286 253.114 504.813 253.943C501.074 256.045 497.866 259.48 494.832 262.448C490.701 266.49 479.437 279.689 483.422 275.502C486.021 272.771 488.224 269.581 490.427 266.535C492.536 263.617 495.231 260.492 496.522 257.076C496.931 255.994 496.79 255.451 495.554 256.008C491.71 257.739 488.331 260.324 485.14 263.04C482.828 265.008 480.551 267.041 478.511 269.293C476.575 271.429 479.723 269.63 480.648 269.12C491.114 263.347 500.656 255.826 511.76 251.213C513.111 250.652 516.17 248.81 517.754 249.481C519.502 250.22 514.719 259.319 514.158 260.383C511.806 264.844 509.045 269.195 506.127 273.307C505.934 273.579 503.264 276.667 503.57 277.076C504.471 278.277 524.136 262.535 525.857 261.293C530.39 258.022 534.934 254.591 539.867 251.935C539.966 251.882 543.916 249.709 544.099 249.928C544.694 250.642 537.106 259.877 536.69 260.426C533.096 265.174 529.219 269.687 525.481 274.318C525.356 274.474 522.969 277.442 523.055 277.481C523.517 277.686 523.95 277.002 524.355 276.701C526.627 275.009 528.766 273.131 530.912 271.286C538.686 264.604 546.452 257.694 555.004 251.993C556.266 251.152 553.7 254.741 552.867 256.008C550.208 260.052 547.443 264.025 544.778 268.065C543.474 270.042 542.071 272.028 540.994 274.145C540.176 275.753 544.006 273.339 544.056 273.307C551.369 268.731 557.51 262.009 565.433 258.434C565.908 258.219 567.653 257.304 567.238 258.549C565.629 263.377 562.691 267.928 560.146 272.296C558.174 275.683 556.189 279.03 554.672 282.65C554.429 283.231 553.636 284.707 554.224 284.484C556.922 283.461 559.403 280.587 561.461 278.679C565.589 274.853 569.605 270.814 574.446 267.878C574.682 267.734 577.378 265.668 577.132 267.069C576.587 270.178 574.338 273.248 572.727 275.863C570.681 279.185 568.361 282.277 566.126 285.466C566.044 285.582 563.957 288.983 564.364 287.719C565.176 285.195 566.644 282.841 567.773 280.455C569.783 276.204 571.646 271.875 573.377 267.502C574.071 265.749 579.315 254.516 573.059 257.235C570.895 258.176 568.785 259.463 566.906 260.889C566.72 261.029 566.206 261.5 566.357 261.322C567.219 260.304 568.162 259.348 569.029 258.333C571.951 254.911 574.652 251.337 576.988 247.488C577.657 246.385 578.941 244.762 579.111 243.401C579.121 243.316 574.869 246.522 574.619 246.737C571.105 249.753 567.698 252.953 564.508 256.311C563.233 257.653 563.572 257.342 562.486 258.535C562.099 258.96 561.478 260.259 561.244 259.733C561.202 259.639 561.335 259.547 561.388 259.459C561.857 258.692 562.358 257.946 562.847 257.192C564.476 254.679 566.147 252.198 567.859 249.74C570.659 245.723 573.695 241.854 576.395 237.769C577.162 236.61 578.878 234.397 578.779 232.845C578.762 232.59 578.479 232.545 578.288 232.585C576.69 232.923 574.951 234.188 573.68 235.055C568.2 238.79 563.453 243.471 558.76 248.123C556.023 250.836 553.31 253.572 550.585 256.296C548.854 258.026 550.439 255.969 550.931 255.314C560.007 243.25 569.805 231.738 579.891 220.513C586.589 213.058 564.591 233.499 557.503 240.585C552.132 245.955 546.767 251.329 541.37 256.672C541.328 256.713 538.358 259.362 538.365 259.17C538.388 258.576 539.329 256.838 539.347 256.802C541.398 252.803 543.799 248.966 546.251 245.206C551.482 237.187 557.338 229.672 563.439 222.304C567.165 217.804 570.943 213.355 574.792 208.961C574.918 208.817 576.179 207.604 576.179 207.199C576.179 206.048 574.498 208.772 573.694 209.596C560.261 223.373 547.976 238.148 534.899 252.253C533.454 253.812 531.914 255.436 530.335 256.874C529.577 257.563 527.958 259.586 527.778 258.578C527.55 257.299 530.147 253.113 530.479 252.484C533.436 246.882 536.725 241.463 540.286 236.224C549.869 222.129 561.704 210.03 572.467 196.903C574.195 194.795 572.104 196.948 571.412 197.639C562.929 206.12 554.725 214.861 546.454 223.546C540.243 230.066 534.026 236.61 527.576 242.896C527.516 242.954 522.886 247.61 523.084 246.535C523.215 245.821 523.892 244.147 524.124 243.647C526.021 239.556 528.514 235.718 530.985 231.964C538.062 221.208 545.717 210.87 553.791 200.845C559.116 194.233 564.62 187.744 569.766 180.99C570.391 180.169 571.502 178.696 572.149 177.74C572.367 177.419 572.926 176.616 572.539 176.643C571.781 176.696 571.19 177.353 570.575 177.798C566.751 180.565 563.12 183.622 559.554 186.708C550.436 194.599 541.923 203.134 533.18 211.43C531.283 213.23 530.083 214.351 528.197 216.036C527.682 216.497 525.908 218.461 524.99 218.665C524.614 218.748 525.073 217.881 525.25 217.538C527.103 213.954 529.577 210.595 531.967 207.372C539.132 197.71 547.225 188.808 555.755 180.34C560.589 175.541 565.588 170.915 570.546 166.246C573.033 163.904 576.049 161.478 578.172 158.737C578.263 158.619 578.436 158.286 578.288 158.304C577.881 158.351 577.535 158.634 577.19 158.852C572.93 161.547 568.862 164.687 564.869 167.748C555.911 174.617 547.661 182.293 539.03 189.553C534.518 193.347 529.94 197.506 524.962 200.701C524.19 201.196 523.354 201.519 523.777 200.123C524.911 196.385 527.415 192.741 529.54 189.567C541.045 172.385 556.42 158.331 570.228 143.083C571.088 142.134 571.908 141.212 572.712 140.224C573.372 139.414 573.333 139.26 572.279 139.849C566.17 143.26 560.664 147.685 555.409 152.267C549.716 157.231 544.194 162.385 538.654 167.517C538.333 167.814 536.421 169.569 535.881 170C535.003 170.701 537.099 168.107 537.816 167.242C549.84 152.742 563.637 139.658 578.576 128.181C581.017 126.306 579.968 127.301 578.273 129.047C572.072 135.433 565.385 141.325 558.846 147.358C553.289 152.485 547.79 157.703 541.687 162.188C540.953 162.728 539.593 164.361 539.29 163.502C538.891 162.373 541.646 157.823 541.774 157.582C546.822 148.071 553.225 139.403 559.309 130.549C562.737 125.559 567.22 120.188 568.856 114.217C569.8 110.77 568.863 108.537 565.086 108.109C559.704 107.498 554.165 109.279 548.996 110.506" stroke="white"/>
<path class="amogus" d="M39 233C40.1782 231.577 40.5257 229.674 41.9664 228.408C43.2509 227.28 44.6094 228.659 45.8556 229.19C49.1732 230.603 52.6939 230.751 56.2049 230.004C58.7858 229.455 60.6633 228.564 63.3901 228.734C68.0284 229.024 72.559 229.962 77.2331 229.581C82.0653 229.187 86.6422 227.45 91.4716 227.041C96.4404 226.62 101.361 227.675 106.27 228.246C115.761 229.349 124.944 226.685 134.385 227.529C140.026 228.034 145.573 229.524 151.26 229.548C155.704 229.567 159.993 228.477 164.378 227.985C176.461 226.629 188.932 225.525 201.095 225.38C211.934 225.25 222.317 224.317 233 225.966" stroke="white"/>
<path class="amogus" d="M40 255C41.0259 254.039 42.1767 252.709 43.3369 251.974C46.1809 250.172 51.1577 251.409 54.3388 250.873C57.1475 250.4 59.8454 248.968 62.6646 248.706C66.1299 248.384 69.5898 250.086 73.0057 250.46C81.827 251.427 89.6686 245.669 98.6107 246.437C105.803 247.054 111.775 246.892 118.896 245.852C127.782 244.554 136.895 245.906 145.856 245.095C162.805 243.561 180.006 242.804 197 242" stroke="white"/>
<path class="amogus" d="M50 276C50.5639 270.85 62.6681 269.113 66.5535 269.533C68.7511 269.771 70.8385 270.06 73.0566 269.733C76.6188 269.209 79.8933 267.197 83.4682 266.9C86.7938 266.623 89.9147 268.147 93.0587 268.967C97.8686 270.22 101.656 268.199 106.229 266.933C114.511 264.641 123.145 268.133 131.552 268.133C135.632 268.133 139.633 267.54 143.672 267.033C149.552 266.295 154.825 266.98 160.619 268.067C173.657 270.512 186.843 265.372 199.999 265.033C212.802 264.704 225.239 265.295 238 264" stroke="white"/>
</svg>
