<svg width="176" height="120" viewBox="0 0 176 120" fill="none" xmlns="http://www.w3.org/2000/svg">
<path d="M8 0L47.1489 10.9612L86.7234 16.4419L127.574 10.9612L168 0L135.234 57.155L102.468 80.6434L86.7234 101L74.383 80.6434L34.8085 57.155L8 0Z" fill="url(#paint0_linear_114_2)"/>
<path d="M35.1495 35.1616C34.3602 33.583 33.6242 32.0576 32.9415 30.5856C32.2588 29.1136 31.6082 27.6843 30.9895 26.2976L30.7975 26.3296C30.9042 28.5056 31.0108 31.0123 31.1175 33.8496C31.2455 36.6656 31.3095 39.247 31.3095 41.5936V62.4896C30.7548 62.575 30.2215 62.639 29.7095 62.6816C29.2188 62.7243 28.7602 62.7456 28.3335 62.7456C27.9282 62.7456 27.4588 62.7243 26.9255 62.6816C26.3922 62.639 25.8695 62.575 25.3575 62.4896V18.8416C25.8695 18.735 26.4988 18.6603 27.2455 18.6176C28.0135 18.5536 28.6428 18.5216 29.1335 18.5216C29.6882 18.5216 30.3175 18.543 31.0215 18.5856C31.7255 18.6283 32.3868 18.6923 33.0055 18.7776L46.9575 46.0736C47.7895 47.7376 48.5575 49.359 49.2615 50.9376C49.9868 52.495 50.6695 53.9456 51.3095 55.2896L51.5015 55.2576C51.3522 52.7403 51.2242 50.0416 51.1175 47.1616C51.0322 44.2603 50.9895 41.7003 50.9895 39.4816V22.5216C50.9895 21.1136 51.2242 20.1003 51.6935 19.4816C52.1842 18.8416 53.0908 18.5216 54.4135 18.5216H56.5255L56.9095 18.8736V62.4256C56.3975 62.5323 55.7788 62.607 55.0535 62.6496C54.3495 62.7136 53.6775 62.7456 53.0375 62.7456C52.4188 62.7456 51.7788 62.7243 51.1175 62.6816C50.4562 62.639 49.8162 62.575 49.1975 62.4896L35.1495 35.1616ZM95.8365 57.0816C95.8365 59.0656 95.5272 60.4736 94.9085 61.3056C94.3112 62.1376 93.2125 62.5536 91.6125 62.5536H72.3485C71.2392 62.5536 70.3538 62.2016 69.6925 61.4976C69.0312 60.7723 68.7005 59.791 68.7005 58.5536V19.1936L69.1165 18.7776H94.6525C94.7378 19.2683 94.7912 19.727 94.8125 20.1536C94.8338 20.5803 94.8445 20.975 94.8445 21.3376C94.8445 21.679 94.8018 22.127 94.7165 22.6816C94.6525 23.215 94.5352 23.7163 94.3645 24.1856H78.9085C78.4392 24.1856 77.8418 24.1856 77.1165 24.1856C76.3912 24.1856 75.6552 24.175 74.9085 24.1536C74.9085 25.007 74.9192 25.711 74.9405 26.2656C74.9618 26.799 74.9725 27.4816 74.9725 28.3136V37.7856C75.7192 37.7643 76.4445 37.7536 77.1485 37.7536C77.8525 37.7323 78.4392 37.7216 78.9085 37.7216H91.1965C91.3032 38.1696 91.3778 38.639 91.4205 39.1296C91.4845 39.6203 91.5165 40.047 91.5165 40.4096C91.5165 40.7723 91.4845 41.199 91.4205 41.6896C91.3778 42.159 91.3032 42.6176 91.1965 43.0656H78.9085C78.4392 43.0656 77.8525 43.0656 77.1485 43.0656C76.4445 43.0443 75.7192 43.0336 74.9725 43.0336V54.1696C74.9725 54.703 74.9618 55.2043 74.9405 55.6736C74.9192 56.143 74.9085 56.655 74.9085 57.2096C75.5272 57.167 76.1672 57.135 76.8285 57.1136C77.5112 57.0923 78.2578 57.0816 79.0685 57.0816H95.8365ZM105.144 18.7776C105.592 18.6923 106.104 18.6283 106.68 18.5856C107.277 18.543 107.811 18.5216 108.28 18.5216C108.813 18.5216 109.368 18.543 109.944 18.5856C110.52 18.6283 111.053 18.6923 111.544 18.7776V62.4896C111.053 62.575 110.52 62.639 109.944 62.6816C109.368 62.7243 108.813 62.7456 108.28 62.7456C107.811 62.7456 107.277 62.7243 106.68 62.6816C106.104 62.639 105.592 62.575 105.144 62.4896V18.7776ZM132.409 51.7696C132.174 51.7696 131.609 51.759 130.713 51.7376C129.817 51.7163 129.092 51.7056 128.537 51.7056L125.049 62.5536C124.644 62.639 124.196 62.703 123.705 62.7456C123.236 62.7883 122.756 62.8096 122.265 62.8096C121.134 62.8096 120.11 62.6603 119.193 62.3616L118.969 62.0736L133.465 18.7776C133.977 18.6923 134.585 18.6283 135.289 18.5856C136.014 18.543 136.644 18.5216 137.177 18.5216C137.689 18.5216 138.308 18.543 139.033 18.5856C139.758 18.6283 140.334 18.703 140.761 18.8096L155.193 62.1056C154.724 62.383 154.148 62.5856 153.465 62.7136C152.804 62.863 152.132 62.9376 151.449 62.9376C150.425 62.9376 149.636 62.7136 149.081 62.2656C148.526 61.7963 148.046 60.8896 147.641 59.5456L145.113 51.7056C144.558 51.7056 143.812 51.7163 142.873 51.7376C141.956 51.759 141.38 51.7696 141.145 51.7696H132.409ZM134.169 34.0736L130.201 46.4576C130.713 46.4576 131.342 46.447 132.089 46.4256C132.836 46.4043 133.326 46.3936 133.561 46.3936H140.153C140.366 46.3936 140.825 46.4043 141.529 46.4256C142.254 46.4256 142.894 46.4363 143.449 46.4576L140.281 36.5696C139.684 34.7136 139.086 32.7616 138.489 30.7136C137.892 28.6656 137.369 26.8203 136.921 25.1776H136.601C136.281 26.5856 135.876 28.1536 135.385 29.8816C134.894 31.5883 134.489 32.9856 134.169 34.0736Z" fill="white"/>
<defs>
<linearGradient id="paint0_linear_114_2" x1="88" y1="0" x2="88" y2="101" gradientUnits="userSpaceOnUse">
<stop stop-color="#4110CD"/>
<stop offset="1" stop-color="#FF0000"/>
</linearGradient>
</defs>
</svg>
