<svg width="176" height="176" viewBox="0 0 176 176" fill="none" xmlns="http://www.w3.org/2000/svg">
<rect width="176" height="176" rx="22" fill="black"/>
<path d="M26.4 35.2C26.4 32.8661 27.3272 30.6278 28.9775 28.9775C30.6278 27.3272 32.8661 26.4 35.2 26.4H140.8C143.134 26.4 145.372 27.3272 147.023 28.9775C148.673 30.6278 149.6 32.8661 149.6 35.2V52.8C149.6 55.1339 148.673 57.3722 147.023 59.0226C145.372 60.6729 143.134 61.6 140.8 61.6H35.2C32.8661 61.6 30.6278 60.6729 28.9775 59.0226C27.3272 57.3722 26.4 55.1339 26.4 52.8V35.2ZM26.4 88C26.4 85.6661 27.3272 83.4278 28.9775 81.7775C30.6278 80.1272 32.8661 79.2 35.2 79.2H88C90.3339 79.2 92.5722 80.1272 94.2226 81.7775C95.8729 83.4278 96.8 85.6661 96.8 88V140.8C96.8 143.134 95.8729 145.372 94.2226 147.023C92.5722 148.673 90.3339 149.6 88 149.6H35.2C32.8661 149.6 30.6278 148.673 28.9775 147.023C27.3272 145.372 26.4 143.134 26.4 140.8V88ZM123.2 79.2C120.866 79.2 118.628 80.1272 116.977 81.7775C115.327 83.4278 114.4 85.6661 114.4 88V140.8C114.4 143.134 115.327 145.372 116.977 147.023C118.628 148.673 120.866 149.6 123.2 149.6H140.8C143.134 149.6 145.372 148.673 147.023 147.023C148.673 145.372 149.6 143.134 149.6 140.8V88C149.6 85.6661 148.673 83.4278 147.023 81.7775C145.372 80.1272 143.134 79.2 140.8 79.2H123.2Z" fill="white"/>
</svg>
